<svg width="2088" height="607" viewBox="0 0 2088 607" fill="none" xmlns="http://www.w3.org/2000/svg">
<path d="M1776.06 91.7238C1776.06 91.7238 1775.57 287.829 1775.15 385.873C1775.05 395.579 1776.41 406.055 1782.72 413.838C1787.94 420.274 1796.59 422.145 1804.46 422.688C1804.83 443.15 1804.87 463.647 1804.39 484.109C1781.06 484.931 1756 482.902 1736.15 469.383C1725.19 461.776 1715.97 451.142 1711.37 438.515C1707.26 427.899 1706.65 416.374 1705.98 405.128C1705.67 349.761 1706.1 223.677 1706.41 149.405C1706.54 117.483 1732.46 91.7234 1764.38 91.7237L1776.06 91.7238Z" fill="#222222"/>
<path d="M1455.56 119.637C1468.52 101.343 1491.62 92.5113 1513.53 93.3858C1513.29 167.697 1513.72 242.008 1512.94 316.319C1522.49 299.757 1535.11 285.206 1546.36 269.798C1563.13 247.535 1580.36 225.621 1596.8 203.13C1623.36 202.413 1649.96 203.042 1676.55 203.077C1675.67 207.275 1672.37 210.213 1669.97 213.553C1643.44 247.64 1616.72 281.568 1589.77 315.305C1588.86 316.722 1586.74 318.348 1587.83 320.237C1625.03 373.491 1661.26 427.445 1697.57 481.311C1679.38 481.923 1661.14 483.602 1642.99 481.993C1622.37 480 1603.62 467.722 1591.97 450.845C1578.73 430.925 1565.75 410.848 1552.2 391.155C1539.22 371.427 1525.3 352.329 1512.89 332.252C1513.86 357.156 1512.97 382.096 1513.06 407.018C1513.08 425.801 1508.36 445.756 1494.66 459.398C1481.54 473.966 1461.83 480.07 1442.74 480.909C1442.93 376.377 1442.88 271.844 1442.93 167.312C1442.23 150.68 1445.11 133.086 1455.56 119.637Z" fill="#222222"/>
<path d="M699.659 110.543C717.113 109.948 734.567 110.543 752.021 110.21C760.066 110.508 768.111 110.35 776.139 110.613C776.051 165.091 775.649 219.587 776.104 274.083C815.839 218.66 857.411 164.514 899.087 110.56C927.455 109.581 955.927 110.368 984.347 110.508C980.079 118.045 973.696 124.114 968.886 131.302C933.576 180.464 898.825 230.028 863.182 278.963C899.28 326.69 933.296 375.94 967.207 425.206C980.307 443.902 993.161 462.773 1005.7 481.836C982.143 481.172 958.06 485.019 934.922 479.23C915.842 474.701 900.696 460.569 890.413 444.41C862.518 402.541 834.99 360.374 804.804 320.097C795.202 307.015 785.163 294.248 775.789 281.009C775.877 323.56 775.877 366.128 775.894 408.679C775.772 420.327 775.894 432.307 771.732 443.36C768.181 453.836 760.748 462.668 751.829 469.052C736.404 479.545 716.903 481.819 698.68 481.399C699.187 454.256 699.169 427.095 699.134 399.935C699.169 303.465 699.117 207.012 699.659 110.543Z" fill="#222222"/>
<path d="M1080.29 202.964C1080.29 202.964 1080.15 295.892 1080.31 342.151C1080.27 359.902 1082.41 378.318 1091.36 393.971C1098.24 405.846 1110.02 415.273 1123.75 417.581C1145.21 421.744 1168.44 411.845 1180.77 393.901C1190.53 379.927 1193.57 362.403 1193.43 345.649C1193.36 323.507 1193.32 301.366 1193.29 279.225C1192.8 258.063 1197.45 235.345 1212.86 219.815C1226.06 206.016 1245.84 200.647 1264.52 202.57C1264.33 248.567 1264.59 294.563 1264.35 340.559C1263.86 371.672 1259.05 403.957 1242.68 430.978C1228.09 455.113 1202.61 470.923 1175.87 478.356C1152.03 485.946 1126.04 486.646 1101.98 479.615C1084.87 474.701 1068.08 468.055 1053.25 458.069C1037.81 447.138 1025.71 431.643 1018.59 414.118C1003.29 375.118 1007.05 332.532 1006.66 291.52C1007.03 274.59 1006.66 202.964 1006.66 202.964H1080.29Z" fill="#222222"/>
<path d="M1332.45 225.622C1345.22 208.272 1367.9 200.787 1388.83 203.078C1388.15 273.331 1388.59 343.586 1388.17 413.822C1387.64 430.926 1382.82 448.817 1370.45 461.251C1357.21 475.855 1336.84 481.451 1317.67 481.574C1317.39 417.616 1317.67 353.659 1317.58 289.702C1316.74 267.735 1317.55 243.286 1332.45 225.622ZM1348.18 110.265C1359.63 108.879 1371.79 112.971 1379.55 121.613C1389.62 132.989 1391.51 150.789 1383.51 163.813C1375.44 178.26 1356.4 184.515 1341.03 178.991C1331.04 175.77 1322.6 167.904 1319.12 157.96C1315.52 147.858 1316.5 136.079 1322.14 126.903C1327.54 117.606 1337.57 111.482 1348.18 110.265Z" fill="#0CD589"/>
<path d="M1332.45 225.622C1345.22 208.272 1367.9 200.787 1388.83 203.078C1388.15 273.331 1388.59 343.586 1388.17 413.822C1387.64 430.926 1382.82 448.817 1370.45 461.251C1357.21 475.855 1336.84 481.451 1317.67 481.574C1317.39 417.616 1317.67 353.659 1317.58 289.702C1316.74 267.735 1317.55 243.286 1332.45 225.622ZM1348.18 110.265C1359.63 108.879 1371.79 112.971 1379.55 121.613C1389.62 132.989 1391.51 150.789 1383.51 163.813C1375.44 178.26 1356.4 184.515 1341.03 178.991C1331.04 175.77 1322.6 167.904 1319.12 157.96C1315.52 147.858 1316.5 136.079 1322.14 126.903C1327.54 117.606 1337.57 111.482 1348.18 110.265Z" fill="url(#paint0_linear_258_241)"/>
<path d="M2042.61 212.224C2055.62 203.41 2071.63 201.171 2087 202.448C2086.02 268.819 2086.56 335.225 2086.21 401.596C2085.58 426.676 2087.07 451.86 2084.11 476.817C2080.23 508.087 2066.38 538.676 2043.01 560.17C2024.97 577.781 2001.46 588.66 1977.17 594.571C1932.2 605.274 1882.38 593.242 1846.91 563.65C1858.36 545.374 1869.77 527.046 1882.24 509.452C1902.19 523.163 1926.43 531.365 1950.79 529.686C1970.4 528.882 1990.55 519.893 2001.13 502.806C2011.57 486.681 2012.85 466.883 2011.8 448.257C1992.91 468.632 1964.33 478.758 1936.82 477.604C1904.69 477.464 1871.64 463.21 1852.86 436.522C1837.26 414.888 1832.29 387.57 1831.17 361.441C1830.96 338.723 1831.17 202.693 1831.17 202.693H1905.24C1905.24 202.693 1905.06 288.652 1905.04 331.64C1904.99 345.754 1904.73 360.042 1907.91 373.911C1910.62 389.004 1920.35 403.45 1934.88 409.239C1946.77 413.349 1959.96 414.311 1972.08 410.498C1984.37 407 1995.64 399.358 2002.95 388.777C2011.31 376.36 2014.11 361.162 2014.4 346.418C2014.7 326.358 2014.42 306.281 2014.56 286.221C2014.65 278.088 2014 269.921 2015.15 261.841C2017.08 242.585 2026.37 223.382 2042.61 212.224Z" fill="#222222"/>
<path d="M757.428 529.038H707.352V537.774H700.8V523.188H728.958L726.462 516.09L734.262 514.998L736.914 523.188H763.824V537.852H757.428V529.038ZM739.254 551.814C746.664 553.998 755.322 555.402 766.008 556.26L764.682 562.578C751.578 561.174 740.97 558.756 731.844 555.168C722.25 559.068 711.174 562.032 699.006 563.826L697.368 557.508C707.04 556.494 716.4 554.544 724.59 551.892C720.768 549.942 717.258 547.68 713.904 545.106C710.862 547.602 707.508 549.942 703.842 551.97L700.41 547.056C708.288 542.922 716.244 535.98 719.754 531.066L726.15 532.548C725.37 533.64 724.512 534.654 723.576 535.746H755.556V541.05C751.032 545.028 745.572 548.694 739.254 551.814ZM718.35 541.284C722.328 544.482 726.774 547.134 731.922 549.24C737.694 546.9 742.686 544.17 746.586 541.206H718.428L718.35 541.284ZM714.606 587.538H708.21V563.904H756.024V587.538H749.55V583.638H714.606V587.538ZM749.55 578.256V569.52H714.606V578.256H749.55ZM842.682 525.996H865.458V556.572H816.006C815.382 570.924 812.964 578.022 806.412 587.772L800.328 583.716C807.66 573.342 809.22 566.79 809.22 547.134V525.996H834.96L830.748 516.948L837.924 515.076L842.682 525.996ZM816.24 549.942H858.438V532.47H816.24V545.73V549.942ZM917.25 515.466L921.462 526.776L915.456 528.492L911.322 517.104L917.25 515.466ZM964.206 519.678H970.368V536.526H931.68V519.678H937.998V530.832H947.67V515.622H953.91V530.832H964.206V519.678ZM905.316 529.584H928.482V535.824H905.316V529.584ZM928.56 569.91L928.794 572.952L929.106 576.306C926.61 576.852 907.5 580.986 905.238 581.532L904.146 575.214C905.316 574.98 910.308 573.966 915.456 572.796C917.718 562.968 920.916 546.666 922.164 539.022L928.014 539.88C926.532 547.29 923.646 561.252 921.384 571.548C924.894 570.768 927.78 570.144 928.56 569.91ZM916.626 566.4L911.244 567.492C910.074 560.004 907.734 547.602 906.096 540.348L911.4 539.256C913.038 546.51 915.534 558.834 916.626 566.4ZM973.644 542.844V548.46H953.52C952.818 550.566 951.804 553.374 951.024 555.636H971.46V579.972C971.46 585.822 969.042 587.538 962.568 587.538H957.654L956.64 582.234H961.398C964.83 582.234 965.454 581.61 965.454 578.724V561.252H959.136V582.078H953.754V561.252H947.748V583.014H942.21V561.252H936.594V587.304H930.666V555.636H944.394L946.734 548.46H929.418V542.844H973.644ZM1061.39 547.992H1077.93V554.7H1061.39V586.992H1054.37V554.7H1033.31C1032.46 570.222 1028.63 577.164 1016.08 588.162L1010.77 583.014C1022.55 573.42 1025.67 567.648 1026.37 554.7H1008.43V547.992H1026.53V547.134V527.322H1011.71V520.77H1074.73V527.322H1061.39V547.992ZM1033.47 547.992H1054.37V527.322H1033.47V546.432V547.992ZM1172.7 523.5L1169.42 529.194C1166.38 527.322 1159.05 522.876 1155.85 521.004L1159.13 515.466C1162.17 517.182 1169.66 521.628 1172.7 523.5ZM1180.81 580.284L1178.08 587.382C1167.55 584.262 1159.28 580.44 1152.58 575.838C1145.71 580.206 1137.21 583.794 1126.06 587.616L1123.09 581.298C1132.92 578.178 1140.72 574.98 1146.96 571.314C1142.2 567.024 1138.54 562.032 1135.49 556.26C1130.97 566.244 1124.73 575.058 1115.68 584.652L1112.02 577.788C1123.09 566.712 1130.35 554.232 1134.71 537.54H1116.23V531.846L1119.89 517.338L1126.76 518.742L1123.64 531.3H1136.12C1137.13 526.542 1137.91 521.394 1138.46 515.934L1145.24 516.48C1144.62 521.784 1143.92 526.698 1143.06 531.3H1180.66V537.54H1141.73C1140.95 540.66 1140.17 543.624 1139.24 546.51H1172.78V552.828C1168.72 560.706 1164.28 566.556 1158.58 571.392C1164.59 575.058 1171.92 577.866 1180.81 580.284ZM1165.13 552.828H1141.11C1144.15 558.6 1148.05 563.436 1152.89 567.414C1158.35 563.28 1162.17 558.522 1165.13 552.828ZM1243.21 572.718L1243.37 575.76L1243.6 579.036C1239 579.738 1221.45 582.702 1216.46 583.56L1215.91 577.242C1216.69 577.164 1217.94 576.93 1219.34 576.774V549.318H1224.65V575.916C1226.21 575.682 1227.85 575.37 1229.48 575.136V544.482H1219.89V520.302H1241.18V543.936C1247.35 539.88 1251.71 535.59 1254.91 529.974H1244.23V524.046H1257.64C1258.58 521.472 1259.44 518.742 1260.14 515.622L1265.99 516.558C1265.44 519.21 1264.74 521.706 1263.96 524.046H1283.93V529.974H1272.23C1275.43 536.37 1279.95 540.816 1285.96 543.702L1283.15 549.006C1279.64 547.134 1276.52 544.794 1273.79 541.908V546.042H1252.49V542.61C1249.84 545.184 1246.88 547.602 1243.37 549.942L1240.17 544.56C1240.25 544.56 1240.25 544.482 1240.33 544.482H1235.26V554.7H1241.57V560.784H1235.26V574.122C1238.69 573.576 1241.65 573.03 1243.21 572.718ZM1235.72 526.698H1225.66V538.164H1235.72V526.698ZM1265.99 529.974H1261.62C1259.67 533.952 1257.33 537.384 1254.44 540.582H1272.62C1269.97 537.54 1267.7 534.03 1265.99 529.974ZM1250.15 558.132H1243.99V552.282H1284.08V558.132H1256.47L1255.07 564.138H1279.17C1278.94 566.01 1277.69 575.448 1277.45 577.554C1276.52 584.028 1274.1 586.134 1266.53 586.134H1255.22L1254.05 580.362H1265.6C1269.34 580.362 1270.82 579.348 1271.29 576.462C1271.53 575.214 1272.07 571.158 1272.38 569.91H1247.89L1250.15 558.132ZM1332.21 515.466L1336.42 526.776L1330.42 528.492L1326.28 517.104L1332.21 515.466ZM1379.17 519.678H1385.33V536.526H1346.64V519.678H1352.96V530.832H1362.63V515.622H1368.87V530.832H1379.17V519.678ZM1320.28 529.584H1343.44V535.824H1320.28V529.584ZM1343.52 569.91L1343.75 572.952L1344.07 576.306C1341.57 576.852 1322.46 580.986 1320.2 581.532L1319.11 575.214C1320.28 574.98 1325.27 573.966 1330.42 572.796C1332.68 562.968 1335.88 546.666 1337.12 539.022L1342.97 539.88C1341.49 547.29 1338.61 561.252 1336.34 571.548C1339.85 570.768 1342.74 570.144 1343.52 569.91ZM1331.59 566.4L1326.2 567.492C1325.03 560.004 1322.69 547.602 1321.06 540.348L1326.36 539.256C1328 546.51 1330.49 558.834 1331.59 566.4ZM1388.6 542.844V548.46H1368.48C1367.78 550.566 1366.76 553.374 1365.98 555.636H1386.42V579.972C1386.42 585.822 1384 587.538 1377.53 587.538H1372.61L1371.6 582.234H1376.36C1379.79 582.234 1380.41 581.61 1380.41 578.724V561.252H1374.1V582.078H1368.71V561.252H1362.71V583.014H1357.17V561.252H1351.55V587.304H1345.63V555.636H1359.35L1361.69 548.46H1344.38V542.844H1388.6ZM1454.2 522.408V527.4L1448.35 535.668H1456.46V579.816C1456.46 584.73 1454.75 586.29 1450.22 586.29H1444.61L1443.59 580.752H1448.12C1450.61 580.752 1451.16 580.128 1451.16 578.1V568.038H1444.69V580.362H1439.46V568.038H1432.99C1432.44 576.462 1430.96 581.61 1427.84 587.694L1422.53 584.808C1426.9 575.916 1427.76 571.236 1427.76 555.558V540.426C1427.29 540.894 1426.75 541.44 1426.28 541.986L1422.92 536.76C1428.23 531.066 1432.75 523.968 1436.5 515.544L1442.19 517.182C1441.41 518.976 1440.63 520.77 1439.85 522.408H1454.2ZM1460.91 545.964L1457.01 541.518C1464.11 536.214 1465.67 533.172 1466.92 527.322C1466.99 526.932 1467.15 526.308 1467.23 525.684H1459.9V519.99H1490.24C1490.24 519.99 1489.38 532.626 1489.22 534.342C1488.68 540.426 1486.65 542.142 1480.18 542.142H1473.55L1472.45 536.448H1478.15C1482.13 536.448 1482.83 535.746 1483.3 532.392C1483.45 530.91 1483.76 526.932 1483.84 525.684H1473.16C1473.08 526.932 1472.84 528.102 1472.61 529.116C1471.44 535.98 1467.93 540.504 1460.91 545.964ZM1446.95 527.79H1436.96C1435.4 530.598 1433.61 533.172 1431.74 535.668H1441.49L1446.95 527.79ZM1439.46 549.474V541.128H1433.22V549.474H1439.46ZM1444.69 549.474H1451.16V541.128H1444.69V549.474ZM1479.94 567.492H1492.66V573.342H1479.94V587.46H1474.09V573.342H1458.41V567.492H1474.09V557.742H1465.98C1465.04 560.394 1463.95 562.968 1462.94 565.308L1457.79 563.436C1460.36 558.21 1462.7 550.956 1463.87 545.262L1469.02 546.51C1468.71 548.226 1468.24 550.098 1467.77 551.892H1474.09V544.404H1479.94V551.892H1491.25V557.742H1479.94V567.492ZM1433.14 562.734H1439.46V554.856H1433.22V558.132C1433.22 559.77 1433.22 561.33 1433.14 562.734ZM1444.69 554.856V562.734H1451.16V554.856H1444.69ZM1588.52 551.658H1595.54V558.054H1570.27C1574.32 568.506 1582.36 575.604 1595.38 580.752L1591.48 587.304C1579.94 582.234 1571.51 574.902 1566.37 564.684C1562.7 573.732 1555.21 580.83 1542.97 587.928L1538.83 581.766C1552.48 574.356 1559.19 567.648 1561.37 558.054H1545.15V551.658H1562.23V550.332C1562.23 549.318 1562.23 542.064 1562.31 534.42H1548.35V527.946H1562.31V515.778H1569.17C1569.17 516.714 1569.1 521.862 1569.1 527.946H1588.52V551.658ZM1544.45 539.958L1537.9 542.766C1535.87 537.696 1530.8 526.698 1528.69 522.174L1534.54 519.444C1537.19 524.592 1541.95 534.498 1544.45 539.958ZM1569.02 549.942V551.658H1582.2V534.42H1569.1C1569.1 541.908 1569.02 548.928 1569.02 549.942ZM1537.35 549.708L1541.17 550.8L1544.21 551.502C1542.81 555.636 1535.56 578.256 1533.84 583.56L1527.21 581.376C1529.47 576.072 1536.34 555.012 1537.35 549.708ZM1699.2 533.25H1657.86L1657.31 543.312C1657.24 544.014 1657.24 544.794 1657.16 545.496H1690.7C1690.54 548.226 1689.14 570.69 1688.9 573.342C1688.05 582.624 1684.85 585.12 1674.86 585.12H1662.54L1661.14 578.412H1672.45C1679.86 578.412 1681.73 576.93 1682.2 570.768C1682.35 568.974 1683.29 553.92 1683.44 552.126H1656.53C1654.58 566.946 1649.75 576.54 1636.49 587.85L1631.26 582.312C1645.46 570.456 1649.2 561.72 1650.45 542.376C1650.68 539.178 1650.84 535.98 1650.92 533.25H1632.28V526.542H1663.87C1662.62 523.266 1660.67 518.274 1660.12 517.026L1667.53 515.388C1668.16 516.714 1670.73 523.188 1672.06 526.542H1699.2V533.25ZM1793.03 527.712H1746V533.562H1739.45V522.33H1767.06C1765.89 520.146 1764.25 517.182 1763.63 516.09L1770.73 514.764C1771.35 515.622 1773.53 519.756 1774.78 522.33H1799.51V533.562H1793.03V527.712ZM1747.09 546.822C1748.65 545.262 1750.29 543.468 1751.85 541.518H1736.25V536.214H1755.98C1757.7 533.874 1759.18 531.69 1760.27 529.896L1767.22 531.144C1766.12 532.782 1764.95 534.498 1763.71 536.214H1802.78V541.518H1789.68C1787.26 544.716 1784.22 547.524 1779.93 549.942C1788.12 552.048 1796.08 554.154 1799.9 555.402L1797.64 560.784C1789.99 558.288 1781.33 555.714 1772.6 553.296C1764.88 556.182 1754.27 558.444 1738.9 560.316L1737.11 554.934C1748.65 553.842 1757.08 552.516 1763.47 550.878C1757.86 549.396 1752.32 548.07 1747.09 546.822ZM1781.33 541.518H1759.57C1758.64 542.61 1757.78 543.702 1756.92 544.56C1759.65 545.106 1765.5 546.432 1772.05 548.07C1776.26 546.198 1779.07 544.092 1781.33 541.518ZM1804.81 579.894L1802.39 585.978C1789.13 581.688 1780.24 577.788 1772.75 571.938V587.772H1766.2V571.782C1758.95 577.554 1749.98 581.766 1736.64 586.134L1734.14 579.816C1747.17 576.54 1754.89 573.03 1761.13 568.584H1736.17V563.202H1766.2V557.118H1772.75V563.202H1802.78V568.584H1777.67C1784.22 573.108 1792.41 576.618 1804.81 579.894Z" fill="#222222"/>
<path d="M343.317 394.533C412.359 462.76 481.378 532.173 550.166 600.653C490.934 601.558 431.343 600.046 372.11 600.245C366.663 601.222 363.514 596.264 360.021 593.115C338.124 571.09 316.226 549.083 294.22 527.167C274.548 506.989 253.953 487.68 234.697 467.103C272.122 444.843 309.24 421.733 343.317 394.533ZM179.79 289.48C180.333 363.805 179.99 438.131 180.08 512.457C180.243 535.368 172.968 559.075 156.554 575.562C139.615 592.392 115.255 600.047 91.7285 600.264C74.3553 600.445 56.9636 600.319 39.5723 600.319C30.5418 560.813 31.5915 519.171 41.5449 479.936C49.5258 450.582 62.2669 422.476 79.5137 397.375C98.0453 369.47 120.775 344.585 144.881 321.403C156.246 310.472 167.557 299.433 179.79 289.48ZM365.36 125.714C392.506 119.308 421.933 126.963 443.577 144.264C450.943 148.734 456.571 158.253 466.308 156.824C507.949 154.598 549.573 152.064 591.215 149.675C594.581 149.331 597.947 149.748 600.191 152.679C598.02 154.344 595.559 155.539 592.898 156.136C559.636 164.208 526.463 172.731 493.272 181.128C482.414 184.096 470.94 186.141 461.512 192.674C445.297 203.46 434.782 220.762 427.398 238.407C413.5 270.222 395.421 300.281 372.618 326.522C327.502 378.443 267.798 415.977 204.603 441.983C204.422 382.642 204.204 323.283 204.639 263.942C242.933 226.716 280.792 189.055 318.869 151.612C331.863 139.27 347.607 129.298 365.36 125.714ZM24.624 123.292C28.6824 118.871 42.6809 118.222 59.3467 123.292C137.099 146.947 173.215 161.886 247.747 185.134C241.289 192.145 234.325 198.667 227.488 205.298C208.766 223.459 194.363 238.981 173.215 258.561C160.487 269.804 143.668 275.963 126.725 276.168C36.2836 272.308 28.4632 183.504 21.877 146.948C20.4604 139.092 19.066 129.767 24.624 123.292ZM410.93 166.814C412.45 157.15 401.338 149.802 392.688 153.294C382.39 156.57 380.852 172.279 390.154 177.672C398.334 183.662 410.929 176.731 410.93 166.814ZM15.0547 4.23877C22.5512 -1.31104 32.938 0.71752 40.4814 5.09717C118.788 50.7351 197.833 106.466 275.797 154.418C277.502 155.493 279.139 156.675 280.808 157.843C275.911 161.869 266.864 168.912 262.042 173.02C180.845 146.95 106.697 123.479 31.3789 96.6948C27.7284 95.3966 26.4733 92.0103 24.7217 89.2104C14.4008 70.3646 7.24499 49.388 6.45703 27.7896C6.37029 19.4075 7.59092 9.42647 15.0547 4.23877Z" fill="url(#paint1_linear_258_241)"/>
<defs>
<linearGradient id="paint0_linear_258_241" x1="1352.92" y1="110" x2="1352.92" y2="481.574" gradientUnits="userSpaceOnUse">
<stop stop-color="#54C6FE"/>
<stop offset="1" stop-color="#AD38FE"/>
</linearGradient>
<linearGradient id="paint1_linear_258_241" x1="303.322" y1="0.867676" x2="303.322" y2="600.944" gradientUnits="userSpaceOnUse">
<stop stop-color="#54C6FE"/>
<stop offset="1" stop-color="#AD38FE"/>
</linearGradient>
</defs>
</svg>
